<svg xmlns="http://www.w3.org/2000/svg" viewBox="0 0 24 24" id="google-photos">
  <g>
    <g>
      <g>
        <path fill="none" d="M0 0h24v24H0z"></path>
        <path fill="#fff" d="M1 12C1 4 4 1 12 1s11 3 11 11-3 11-11 11S1 20 1 12"></path>
        <path fill="#ffba00" d="M6 12a3 3 0 0 1 6 0Z"></path>
        <path fill="#ea4435" d="M15 9a3 3 0 0 1-3 3V6a3 3 0 0 1 3 3"></path>
        <path fill="#0066da" d="M18 12a3 3 0 0 1-6 0Z"></path>
        <path fill="#00ac47" d="M9 15a3 3 0 0 1 3-3v6a3 3 0 0 1-3-3"></path>
      </g>
    </g>
  </g>
</svg>
